<?xml version="1.0" encoding="UTF-8" standalone="no" ?>
<!DOCTYPE svg PUBLIC "-//W3C//DTD SVG 1.1//EN" "http://www.w3.org/Graphics/SVG/1.1/DTD/svg11.dtd">
<svg xmlns="http://www.w3.org/2000/svg" xmlns:xlink="http://www.w3.org/1999/xlink" version="1.1" width="1024" height="1024" viewBox="6.46 6.46 1024 1024" xml:space="preserve">
<desc>Created with Fabric.js 5.2.4</desc>
<defs>
</defs>
<rect x="0" y="0" width="100%" height="100%" fill="transparent"></rect>
<g transform="matrix(Infinity NaN NaN Infinity 0 0)" id="c178c671-1235-4b25-8921-4c85ff3d9c1f"  >
</g>
<g transform="matrix(1 0 0 1 512 512)" id="8564fe51-2729-4b93-a0cd-76029aa801b0"  >
<rect style="stroke: none; stroke-width: 1; stroke-dasharray: none; stroke-linecap: butt; stroke-dashoffset: 0; stroke-linejoin: miter; stroke-miterlimit: 4; fill: rgb(255,255,255); fill-rule: nonzero; opacity: 1; visibility: hidden;" vector-effect="non-scaling-stroke"  x="-512" y="-512" rx="0" ry="0" width="1024" height="1024" />
</g>
<g transform="matrix(NaN NaN NaN NaN 0 0)"  >
<g style=""   >
</g>
</g>
<g transform="matrix(NaN NaN NaN NaN 0 0)"  >
<g style=""   >
</g>
</g>
<g transform="matrix(37.89 0 0 37.89 512 512)"  >
<path style="stroke: none; stroke-width: 1; stroke-dasharray: none; stroke-linecap: butt; stroke-dashoffset: 0; stroke-linejoin: miter; stroke-miterlimit: 4; fill: rgb(0,0,0); fill-rule: evenodd; opacity: 1;"  transform=" translate(-12, -11.08)" d="M 13.182 3.733 C 13.17 3.694 13.17 3.694 13.17 3.661 C 13.146844462381331 3.128436486758459 13.559463884834415 2.677777312777705 14.092 2.654 C 14.623751438122149 2.6330692739243626 15.07307792692043 3.04446850199985 15.099 3.5759999999999996 C 15.123320636616 4.107105957288196 14.713057116401004 4.55763525375112 14.182 4.583 C 14.155000000000001 4.587 14.120000000000001 4.583 14.081 4.583 C 14.065 4.587 14.041 4.587 14.025 4.605 C 13.969000000000001 4.689 14.165000000000001 4.678000000000001 14.02 5.045000000000001 C 14.02 5.045000000000001 14.02 5.083000000000001 14.008 5.122000000000001 C 13.995999999999999 5.2620000000000005 13.927999999999999 5.684000000000001 13.911999999999999 5.915000000000001 C 13.940999999999999 5.955000000000001 13.951999999999998 5.965000000000001 13.940999999999999 6.045000000000001 C 13.919048059609715 6.224263214361674 13.88901751155193 6.40244446617119 13.850999999999999 6.579000000000001 C 13.811 6.719 13.754999999999999 6.753000000000001 13.703999999999999 6.781000000000001 C 13.630999999999998 7.079000000000001 13.608999999999998 7.3260000000000005 13.422999999999998 7.686000000000001 C 13.400999999999998 7.962000000000001 13.377999999999998 8.036000000000001 13.316999999999998 8.170000000000002 C 13.299999999999999 8.570000000000002 13.326999999999998 8.630000000000003 13.035999999999998 9.271 C 12.955999999999998 9.571000000000002 13.018999999999998 9.778 13.085999999999999 10.092 C 13.153999999999998 10.413 13.361999999999998 10.553 13.383999999999999 10.885 C 13.434 11.656 13.400999999999998 12.19 13.220999999999998 12.792 L 13.355999999999998 13.14 C 13.535999999999998 13.224 13.973999999999998 13.466000000000001 13.715999999999998 13.815000000000001 C 14.058999999999997 14.005 14.580999999999998 14.209000000000001 14.995999999999997 14.596000000000002 C 15.171999999999997 14.743000000000002 15.345999999999997 14.911000000000001 15.508999999999997 15.096000000000002 C 15.824999999999998 15.153000000000002 15.784999999999997 15.176000000000002 16.014999999999997 15.327000000000002 C 16.689999999999998 15.765000000000002 17.763999999999996 16.631 18.387999999999998 17.233 C 18.499999999999996 17.3 18.534999999999997 17.345 18.624 17.396 C 18.634 17.419 18.641 17.43 18.634 17.436 C 18.608 17.508 18.608 17.508 18.574 17.576 C 18.613000000000003 17.616 18.669 17.649 18.708000000000002 17.683 C 18.748 17.688 18.748 17.677 18.804000000000002 17.666 C 18.883000000000003 17.739 18.984 17.801000000000002 19.018 17.801000000000002 C 19.124000000000002 17.779000000000003 19.102 17.796000000000003 19.203 17.701 C 19.232 17.666 19.287 17.701 19.287 17.701 C 19.326999999999998 17.661 19.4 17.582 19.500999999999998 17.525000000000002 C 19.58 17.48 19.730999999999998 17.48 19.730999999999998 17.48 C 19.782999999999998 17.486 19.770999999999997 17.531 19.759999999999998 17.553 C 19.703 17.576 19.58 17.61 19.512999999999998 17.661 C 19.360999999999997 17.801000000000002 19.237 18.014000000000003 19.237 18.014000000000003 C 19.535999999999998 17.981 19.720999999999997 18.059000000000005 19.956 18.037000000000003 C 20.092 18.032000000000004 20.192999999999998 18.043000000000003 20.333 17.947000000000003 C 20.333 17.947000000000003 20.473 17.851000000000003 20.598 17.807000000000002 C 20.715999999999998 17.757 20.828 17.790000000000003 20.927999999999997 17.869000000000003 C 20.996999999999996 17.953000000000003 21.046999999999997 17.953000000000003 20.927999999999997 18.065000000000005 C 20.883999999999997 18.110000000000007 20.827999999999996 18.161000000000005 20.747999999999998 18.235000000000007 C 20.615 18.358000000000008 20.435 18.526000000000007 20.247999999999998 18.667000000000005 C 20.083153069445338 18.789125190520565 19.906626418598712 18.894639222810294 19.720999999999997 18.982000000000006 C 19.382999999999996 19.212000000000007 19.460999999999995 19.156000000000006 19.197999999999997 19.376000000000005 C 19.167999999999996 19.398000000000003 19.073999999999998 19.454000000000004 19.034999999999997 19.482000000000006 C 18.927999999999997 19.544000000000008 18.899999999999995 19.488000000000007 18.837999999999997 19.364000000000008 C 18.837999999999997 19.364000000000008 18.81 19.319000000000006 18.758 19.224000000000007 C 18.708 19.117000000000008 18.668 18.994000000000007 18.686 18.994000000000007 C 18.624 18.987000000000005 18.355 18.650000000000006 18.355 18.584000000000007 C 18.292 18.571000000000005 18.051000000000002 18.324000000000005 18.045 18.274000000000008 L 17.831000000000003 18.09400000000001 C 17.578000000000003 18.13800000000001 17.521000000000004 17.98100000000001 16.870000000000005 17.486000000000008 C 16.790000000000006 17.480000000000008 16.673000000000005 17.436000000000007 16.510000000000005 17.31200000000001 C 16.212000000000007 17.059000000000008 15.503000000000005 16.497000000000007 15.386000000000005 16.42900000000001 C 15.256000000000004 16.36200000000001 15.105000000000004 16.29500000000001 15.003000000000004 16.21500000000001 C 14.857000000000003 16.193000000000012 14.785000000000004 16.16500000000001 14.705000000000004 16.14800000000001 C 14.625000000000004 16.126000000000012 14.565000000000003 16.09100000000001 14.379000000000003 16.06900000000001 C 14.076000000000002 16.024000000000008 13.761000000000003 15.88900000000001 13.468000000000004 15.73200000000001 C 13.328000000000003 15.65900000000001 13.204000000000004 15.62500000000001 13.086000000000004 15.56300000000001 C 12.816000000000004 15.439000000000009 12.580000000000004 15.327000000000009 12.400000000000004 15.28300000000001 C 12.200860360928903 15.235131366817756 12.009590506072144 15.159027516117707 11.832000000000004 15.05700000000001 C 11.771000000000004 15.023000000000009 11.737000000000004 14.997000000000009 11.698000000000004 14.984000000000009 C 11.608000000000004 14.962000000000009 11.545000000000003 14.990000000000009 11.506000000000004 15.006000000000009 C 11.276000000000003 15.11400000000001 11.068000000000003 15.209000000000009 10.870000000000005 15.31600000000001 C 10.690000000000005 15.40600000000001 10.522000000000004 15.50200000000001 10.342000000000004 15.60200000000001 C 10.167202858353395 15.693242284858902 9.98908032221954 15.777967236503098 9.808000000000003 15.85600000000001 C 9.808000000000003 15.856000000000009 9.274000000000003 16.10900000000001 8.976000000000003 16.204000000000008 C 8.716000000000003 16.401000000000007 8.189000000000002 16.750000000000007 7.869000000000002 16.919000000000008 C 7.711000000000002 16.992000000000008 7.402000000000003 17.171000000000006 7.261000000000003 17.21100000000001 C 7.181000000000003 17.27200000000001 6.890000000000002 17.46900000000001 6.665000000000003 17.63200000000001 C 6.485000000000003 17.756000000000007 6.355000000000003 17.86300000000001 6.355000000000003 17.86300000000001 C 6.249000000000003 17.94700000000001 6.254000000000003 17.99300000000001 6.075000000000003 17.908000000000012 C 6.0299630689176915 17.937626366493188 5.986566008810928 17.969673426264336 5.945000000000003 18.004000000000012 C 5.805000000000003 18.09900000000001 5.799000000000003 18.077000000000012 5.743000000000003 18.071000000000012 C 5.642000000000003 18.15100000000001 5.630000000000003 18.11100000000001 5.546000000000003 18.20100000000001 C 5.485000000000003 18.28500000000001 5.546000000000003 18.26200000000001 5.428000000000003 18.307000000000013 C 5.400000000000003 18.313000000000013 5.388000000000003 18.347000000000012 5.371000000000002 18.363000000000014 C 5.277000000000002 18.436000000000014 5.271000000000003 18.656000000000013 5.046000000000002 18.667000000000012 C 4.911000000000002 18.757000000000012 4.939000000000002 18.87000000000001 4.849000000000002 18.85800000000001 C 4.849000000000002 18.96000000000001 4.669000000000002 19.08800000000001 4.635000000000002 19.08800000000001 C 4.343000000000002 19.18400000000001 4.331000000000001 18.970000000000013 3.9890000000000017 19.12300000000001 C 3.9440000000000017 19.13900000000001 3.8760000000000017 19.19500000000001 3.7920000000000016 19.20700000000001 C 3.6400000000000015 19.22900000000001 3.4600000000000017 19.20100000000001 3.3480000000000016 19.10500000000001 C 3.222058880034419 18.987476074307285 3.1124183539368073 18.853620462691183 3.022000000000002 18.70700000000001 C 2.9710000000000014 18.577000000000012 3.0050000000000017 18.499000000000013 3.1850000000000014 18.37500000000001 C 3.2580000000000013 18.33000000000001 3.2690000000000015 18.29600000000001 3.3930000000000016 18.29100000000001 C 3.4530000000000016 18.26700000000001 3.4380000000000015 18.301000000000013 3.5430000000000015 18.26700000000001 C 3.6070000000000015 18.251000000000012 3.6070000000000015 18.26200000000001 3.7360000000000015 18.26200000000001 C 3.7640000000000016 18.24500000000001 3.8030000000000017 18.240000000000013 3.8600000000000017 18.21700000000001 C 3.9600000000000017 18.18300000000001 4.056000000000002 18.15500000000001 4.056000000000002 18.15500000000001 C 4.056000000000002 18.15500000000001 4.084000000000001 18.13200000000001 4.1800000000000015 18.145000000000007 C 4.258000000000002 18.110000000000007 4.349000000000001 18.06500000000001 4.394000000000002 18.048000000000005 C 4.382000000000002 17.924000000000007 4.399000000000002 17.924000000000007 4.4540000000000015 17.874000000000006 C 4.534000000000002 17.812000000000005 4.544000000000001 17.824000000000005 4.602000000000001 17.864000000000004 C 4.624000000000001 17.857000000000003 4.641000000000001 17.851000000000003 4.629000000000001 17.829000000000004 C 4.6190000000000015 17.756000000000004 4.568000000000001 17.722000000000005 4.584000000000001 17.582000000000004 C 4.562000000000001 17.525000000000006 4.5230000000000015 17.453000000000003 4.534000000000002 17.408000000000005 C 4.544000000000001 17.363000000000003 4.562000000000001 17.339000000000006 4.590000000000002 17.329000000000004 C 4.6190000000000015 17.317000000000004 4.635000000000002 17.335000000000004 4.647000000000002 17.351000000000003 C 4.675000000000002 17.385 4.697000000000002 17.486000000000004 4.697000000000002 17.486000000000004 C 4.703000000000002 17.604000000000003 4.737000000000002 17.746000000000006 4.849000000000002 17.666000000000004 C 4.916000000000002 17.604000000000003 4.933000000000002 17.424000000000003 5.063000000000002 17.463000000000005 L 5.1590000000000025 17.548000000000005 C 5.243000000000002 17.475000000000005 5.243000000000002 17.475000000000005 5.299000000000002 17.441000000000006 C 5.299000000000002 17.441000000000006 5.219000000000002 17.368000000000006 5.287000000000003 17.306000000000004 C 5.3320000000000025 17.267000000000003 5.395000000000002 17.239000000000004 5.495000000000003 17.131000000000004 C 5.771000000000003 16.839000000000002 5.9170000000000025 16.711000000000002 6.209000000000003 16.474000000000004 C 6.72759533302798 16.08148559035261 7.29973834575175 15.765274708099744 7.908000000000003 15.535000000000004 C 8.054000000000004 15.361000000000004 8.188000000000002 15.249000000000004 8.493000000000002 15.231000000000003 C 8.870000000000003 14.625000000000004 9.578000000000003 14.095000000000004 9.741000000000001 14.011000000000003 C 9.875000000000002 13.781000000000002 9.931000000000001 13.803000000000003 10.106000000000002 13.764000000000003 C 10.241000000000001 13.657000000000004 10.281000000000002 13.657000000000004 10.336000000000002 13.550000000000002 C 10.399000000000003 13.320000000000002 10.224000000000002 12.690000000000003 10.719000000000001 12.673000000000002 C 10.831000000000001 12.527000000000001 10.797 12.561000000000002 10.915000000000001 12.425000000000002 C 10.856186655830356 12.263539957970671 10.816580886623681 12.095718902010182 10.797 11.925000000000002 C 10.792 11.909000000000002 10.601 11.768000000000002 10.667 11.593000000000002 C 10.562177509287856 11.459205919705633 10.47230938891602 11.31434387492715 10.399 11.161000000000001 C 10.377494963777083 11.160380421987885 10.356226979213947 11.156329377309191 10.335999999999999 11.149000000000001 C 10.313999999999998 11.144 10.280999999999999 11.144 10.245999999999999 11.144 C 10.168 11.34 10.082999999999998 11.352 9.942999999999998 11.397 C 9.682999999999998 11.909 9.592999999999998 12.128 8.896999999999998 12.539 C 8.616999999999999 12.837 8.514999999999999 13.179 8.514999999999999 13.173 C 8.47255635968313 13.27508154127731 8.46829643781863 13.389034451152664 8.502999999999998 13.494 C 8.457999999999998 13.600999999999999 8.475999999999999 13.618 8.475999999999999 13.618 C 8.485999999999999 13.663 8.531999999999998 13.724 8.581999999999999 13.73 C 8.661 13.753 8.751 13.753 8.739999999999998 13.848 C 8.729 13.961 8.576999999999998 13.938 8.502999999999998 13.921000000000001 C 8.227999999999998 13.871 8.317999999999998 13.691 8.137999999999998 13.747000000000002 C 7.996999999999998 13.832000000000003 7.941999999999998 14.095000000000002 7.721999999999998 14.057000000000002 C 7.693999999999998 14.034000000000002 7.704999999999997 13.983000000000002 7.727999999999998 13.938000000000002 C 7.755999999999998 13.878000000000002 7.811999999999998 13.820000000000002 7.783999999999998 13.798000000000002 C 7.637999999999998 13.838000000000001 7.350999999999998 13.921000000000001 7.350999999999998 13.921000000000001 C 7.215999999999998 13.961 7.0699999999999985 13.882000000000001 7.203999999999998 13.797 C 7.266999999999998 13.775 7.3569999999999975 13.747 7.468999999999998 13.679 C 7.468999999999998 13.679 7.530999999999998 13.607000000000001 7.411999999999997 13.64 C 7.277279062630491 13.68044729538003 7.136253958900576 13.69570241477389 6.995999999999997 13.685 C 6.995999999999997 13.685 6.738999999999997 13.646 6.703999999999997 13.629000000000001 C 6.6759999999999975 13.607000000000001 6.642999999999997 13.522000000000002 6.720999999999997 13.529000000000002 C 6.910528351607442 13.526085208237573 7.099227903721493 13.503293788088808 7.283999999999997 13.461000000000002 C 7.378999999999997 13.426000000000002 7.563999999999997 13.321000000000002 7.665999999999997 13.275000000000002 C 7.665999999999997 13.275000000000002 7.778999999999997 13.118000000000002 7.8459999999999965 13.085000000000003 C 7.952999999999997 12.971000000000002 8.035999999999996 12.905000000000003 8.125999999999996 12.786000000000003 C 8.215999999999996 12.606000000000003 8.317999999999996 12.326000000000002 8.625999999999996 11.880000000000003 C 8.782113811517203 11.64719216579654 8.96135802392111 11.43075896726771 9.160999999999994 11.234000000000002 C 9.160999999999996 11.234000000000002 9.222999999999995 10.896000000000003 9.503999999999996 10.661000000000001 C 9.566999999999997 10.521 9.660999999999996 10.351 9.762999999999996 10.199000000000002 C 9.80157773287042 10.145113989633394 9.836971474424367 10.089018248302612 9.868999999999996 10.031000000000002 C 9.958999999999996 9.901000000000002 10.054999999999996 9.654000000000002 10.386999999999997 9.621000000000002 C 10.386999999999997 9.621000000000002 10.533999999999997 9.519000000000002 10.583999999999996 9.446000000000002 C 10.667999999999996 9.373000000000001 10.657999999999996 9.260000000000002 10.723999999999997 9.187000000000001 C 10.617999999999997 9.081000000000001 10.358999999999996 8.878000000000002 10.341999999999997 8.614 C 10.319848366683017 8.354943752073765 10.417479738664506 8.099996924107009 10.606999999999998 7.922000000000001 C 10.802999999999997 7.737000000000001 11.004999999999997 7.647 11.252999999999998 7.664000000000001 C 11.561999999999998 7.719 11.618999999999998 7.821000000000001 11.707999999999998 7.922000000000001 C 11.797999999999998 8.023000000000001 11.838 7.962000000000001 11.870999999999999 8.068000000000001 C 12.129999999999999 8.141000000000002 12.118999999999998 8.113000000000001 12.107999999999999 8.304000000000002 C 12.152999999999999 8.361000000000002 12.213999999999999 8.412000000000003 12.207999999999998 8.518000000000002 C 12.293 8.343000000000002 12.315999999999999 8.310000000000002 12.551999999999998 8.119000000000003 C 12.613999999999997 7.962000000000003 12.651999999999997 7.804000000000003 12.701999999999998 7.641000000000004 C 12.753999999999998 7.495000000000004 12.815999999999999 7.3430000000000035 12.855999999999998 7.231000000000003 C 12.815999999999999 6.905000000000004 12.915999999999999 6.854000000000004 13.051999999999998 6.567000000000004 C 13.029999999999998 6.528000000000004 13.035999999999998 6.517000000000004 13.045999999999998 6.455000000000004 C 13.102999999999998 6.2630000000000035 13.181999999999997 6.022000000000004 13.231999999999998 5.8590000000000035 C 13.231999999999998 5.8590000000000035 13.248999999999997 5.796000000000004 13.316999999999998 5.796000000000004 C 13.376999999999999 5.594000000000004 13.473999999999998 5.217000000000004 13.495999999999999 5.133000000000004 C 13.557999999999998 4.925000000000003 13.524999999999999 4.846000000000004 13.485999999999999 4.723000000000003 C 13.473999999999998 4.683000000000003 13.479999999999999 4.633000000000004 13.456 4.587000000000003 C 13.38705944779359 4.453002337920385 13.323672296085986 4.316219536867136 13.266000000000002 4.177000000000004 C 13.238 4.104000000000003 13.186 3.823000000000003 13.186 3.823000000000003 C 13.182 3.7610000000000032 13.182 3.733000000000003 13.182 3.733000000000003 z" stroke-linecap="round" />
</g>
</svg>