<?xml version="1.0" encoding="UTF-8" standalone="no" ?>
<!DOCTYPE svg PUBLIC "-//W3C//DTD SVG 1.1//EN" "http://www.w3.org/Graphics/SVG/1.1/DTD/svg11.dtd">
<svg xmlns="http://www.w3.org/2000/svg" xmlns:xlink="http://www.w3.org/1999/xlink" version="1.1" width="1024" height="380" viewBox="6.46 80.77 1024 380" xml:space="preserve">
<desc>Created with Fabric.js 5.2.4</desc>
<defs>
</defs>
<g transform="matrix(Infinity NaN NaN Infinity 0 0)" id="c178c671-1235-4b25-8921-4c85ff3d9c1f"  >
</g>
<g transform="matrix(1 0 0 1 512 190)" id="8564fe51-2729-4b93-a0cd-76029aa801b0"  >
<rect style="stroke: none; stroke-width: 1; stroke-dasharray: none; stroke-linecap: butt; stroke-dashoffset: 0; stroke-linejoin: miter; stroke-miterlimit: 4; fill: rgb(255,255,255); fill-rule: nonzero; opacity: 1; visibility: hidden;" vector-effect="non-scaling-stroke"  x="-512" y="-190" rx="0" ry="0" width="1024" height="380" />
</g>
<g transform="matrix(43.25 0 0 43.25 522.04 270.63)"  >
<path style="stroke: none; stroke-width: 0; stroke-dasharray: none; stroke-linecap: butt; stroke-dashoffset: 0; stroke-linejoin: miter; stroke-miterlimit: 4; fill: rgb(0,0,0); fill-rule: evenodd; opacity: 1;"  transform=" translate(-12, -11.86)" d="M 21 8.719 L 7.836 14.303 Q 6.191 15 5.075 15 Q 3.819 15 3.2560000000000002 14.116 C 2.7710000000000004 13.356 2.983 12.134 3.8150000000000004 10.844 C 4.309 10.09 4.937 9.398 5.549 8.735999999999999 C 5.405 8.969999999999999 4.134 11.084999999999999 5.524 12.081 C 5.799 12.280999999999999 6.19 12.379 6.671 12.379 C 7.057 12.379 7.5 12.315999999999999 7.987 12.189 z" stroke-linecap="round" />
</g>
</svg>
